<svg width="86" height="80" viewBox="0 0 86 80" fill="none" xmlns="http://www.w3.org/2000/svg">
<path d="M20.4992 34.3466C19.4159 35.4378 18.107 35.9833 16.5813 35.9833C15.0557 35.9833 13.7467 35.4378 12.6634 34.3466C11.5802 33.2555 11.0385 31.937 11.0385 30.4003H14.7352C14.7352 30.9095 14.9158 31.3459 15.2814 31.7142C15.647 32.0825 16.0803 32.2643 16.5859 32.2643C17.0914 32.2643 17.5247 32.0825 17.8903 31.7142C18.2559 31.3459 18.4365 30.9095 18.4365 30.4003V13.642H14.7398V17.3656H11.043V9.91846H22.1242V30.4003C22.1242 31.9415 21.5825 33.2555 20.4992 34.3466Z" fill="#3F5F4A"/>
<path d="M40.5715 13.642H25.7846V9.91846H40.5715V13.642ZM40.5715 35.9833H25.7846V32.2598H40.5715V35.9833ZM35.0242 27.1405C33.8777 28.1589 32.5371 28.6226 31.0024 28.5271C29.4678 28.4362 28.1949 27.8179 27.1839 26.6767C26.1728 25.5219 25.7124 24.1716 25.7982 22.6258C25.8839 21.08 26.5023 19.7979 27.6488 18.7795C28.7952 17.7611 30.1313 17.2974 31.6615 17.3838C33.1916 17.4701 34.4599 18.093 35.471 19.2478L35.4891 19.266L41.4968 26.0811L38.7254 28.559L36.1932 25.6901C35.8953 26.2221 35.5071 26.7085 35.0242 27.1405ZM31.2281 24.8036C31.7382 24.8354 32.185 24.6808 32.5687 24.3489C32.9388 24.0125 33.1419 23.5851 33.1781 23.0623C33.2006 22.5531 33.0562 22.1121 32.7357 21.7393L32.7177 21.7211C32.3836 21.3346 31.9594 21.13 31.4403 21.0982C30.9212 21.0664 30.4789 21.2255 30.1087 21.571C29.7251 21.9075 29.522 22.3303 29.4904 22.8486C29.4588 23.3624 29.6167 23.8125 29.9598 24.1989C30.2938 24.5717 30.7181 24.7763 31.2281 24.8036Z" fill="#3F5F4A"/>
<path d="M53.6928 34.3466C52.6096 35.4378 51.3006 35.9833 49.7749 35.9833C48.2448 35.9833 46.9403 35.4378 45.8571 34.3466C44.7738 33.2555 44.2321 31.937 44.2321 30.4003H47.9288C47.9288 30.9095 48.1094 31.3459 48.475 31.7142C48.8406 32.0825 49.2739 32.2643 49.7795 32.2643C50.285 32.2643 50.7183 32.0825 51.0839 31.7142C51.4495 31.3459 51.6301 30.9095 51.6301 30.4003V26.3767C51.0523 26.5767 50.4339 26.6767 49.7795 26.6767C48.2493 26.6767 46.9449 26.1312 45.8616 25.04C44.7783 23.9488 44.2366 22.6304 44.2366 21.0937V9.91846H47.9334V21.0891C47.9334 21.5983 48.1139 22.0348 48.4795 22.403C48.8451 22.7713 49.2784 22.9532 49.784 22.9532C50.2895 22.9532 50.7228 22.7713 51.0884 22.403C51.454 22.0348 51.6346 21.5983 51.6346 21.0891V9.91846H55.3313V30.4003C55.3223 31.9415 54.7806 33.2555 53.6928 34.3466Z" fill="#3F5F4A"/>
<path d="M73.7652 13.642H58.9783V9.91846H73.7652V13.642ZM73.7652 35.9833H58.9783V32.2598H73.7652V35.9833ZM68.2224 27.1405C67.0759 28.1589 65.7353 28.6226 64.2007 28.5271C62.666 28.4362 61.3932 27.8179 60.3821 26.6767C59.371 25.5219 58.9106 24.1716 58.9964 22.6258C59.0821 21.08 59.7005 19.7979 60.847 18.7795C61.9935 17.7611 63.3295 17.2974 64.8597 17.3838C66.3898 17.4701 67.6582 18.093 68.6693 19.2478L68.6873 19.266L74.695 26.0811L71.9236 28.559L69.3914 25.6901C69.089 26.2221 68.7009 26.7085 68.2224 27.1405ZM64.4219 24.8036C64.9319 24.8354 65.3788 24.6808 65.7624 24.3489C66.1326 24.0125 66.3357 23.5851 66.3718 23.0623C66.3944 22.5531 66.2499 22.1121 65.9294 21.7393L65.9114 21.7211C65.5774 21.3346 65.1531 21.13 64.634 21.0982C64.1149 21.0664 63.6726 21.2255 63.3025 21.571C62.9188 21.9075 62.7157 22.3303 62.6841 22.8486C62.6525 23.3624 62.8105 23.8125 63.1535 24.1989C63.492 24.5717 63.9118 24.7763 64.4219 24.8036Z" fill="#3F5F4A"/>
<path d="M20.4992 68.4358C19.4159 69.527 18.1069 70.0725 16.5813 70.0725C15.0556 70.0725 13.7467 69.527 12.6634 68.4358C11.5801 67.3447 11.0385 66.0262 11.0385 64.4895H14.7352C14.7352 64.9987 14.9157 65.4351 15.2813 65.8034C15.6469 66.1717 16.0803 66.3535 16.5858 66.3535C17.0913 66.3535 17.5246 66.1717 17.8903 65.8034C18.2559 65.4351 18.4364 64.9987 18.4364 64.4895V60.4659C17.8587 60.6659 17.2403 60.7659 16.5858 60.7659C15.0556 60.7659 13.7512 60.2204 12.6679 59.1292C11.5846 58.0381 11.043 56.7196 11.043 55.1829V44.0122H14.7397V55.1829C14.7397 55.6921 14.9202 56.1285 15.2858 56.4968C15.6515 56.8651 16.0848 57.0469 16.5903 57.0469C17.0958 57.0469 17.5292 56.8651 17.8948 56.4968C18.2604 56.1285 18.4409 55.6921 18.4409 55.1829V44.0122H22.1241V64.494C22.1241 66.0307 21.5825 67.3447 20.4992 68.4358Z" fill="#3F5F4A"/>
<path d="M38.2017 47.7314H27.1115V44.0078H38.2017V47.7314ZM28.7365 53.0962C29.8198 52.005 31.1287 51.4595 32.6544 51.4595C34.1845 51.4595 35.489 52.005 36.5723 53.0962C37.6556 54.1873 38.1972 55.5058 38.1972 57.0425C38.1972 58.5838 37.6556 59.8977 36.5723 60.9889C35.489 62.08 34.18 62.6256 32.6544 62.6256C31.1242 62.6256 29.8198 62.08 28.7365 60.9889C27.6532 59.8977 27.1115 58.5792 27.1115 57.0425C27.107 55.5013 27.6532 54.1873 28.7365 53.0962ZM38.2017 70.0772H27.1115V66.3537H38.2017V70.0772ZM33.9588 55.7286C33.5932 55.3603 33.1599 55.1785 32.6544 55.1785C32.1488 55.1785 31.7155 55.3603 31.3499 55.7286C30.9843 56.0969 30.8038 56.5333 30.8038 57.0425C30.8038 57.5517 30.9843 57.9882 31.3499 58.3565C31.7155 58.7247 32.1488 58.9066 32.6544 58.9066C33.1599 58.9066 33.5932 58.7247 33.9588 58.3565C34.3244 57.9882 34.505 57.5517 34.505 57.0425C34.505 56.5333 34.3199 56.0969 33.9588 55.7286Z" fill="#3F5F4A"/>
<path d="M47.4278 65.8034C47.7934 66.1717 48.2267 66.3535 48.7323 66.3535C49.2378 66.3535 49.6711 66.1717 50.0367 65.8034C50.4024 65.4351 50.5829 64.9987 50.5829 64.4895H54.2796C54.2796 66.0307 53.738 67.3447 52.6547 68.4358C51.5714 69.527 50.2624 70.0725 48.7368 70.0725C47.2112 70.0725 45.9022 69.527 44.8189 68.4358C43.7356 67.3447 43.194 66.0262 43.194 64.4895V57.0424H46.8907C46.8907 57.5516 47.0712 57.988 47.4369 58.3563C47.8025 58.7246 48.2358 58.9064 48.7413 58.9064C49.2468 58.9064 49.6802 58.7246 50.0458 58.3563C50.4114 57.988 50.5919 57.5516 50.5919 57.0424C50.5919 56.5332 50.4114 56.0967 50.0458 55.7284C49.6802 55.3602 49.2468 55.1783 48.7413 55.1783C47.2112 55.1783 45.9067 54.6327 44.8234 53.5416C43.7401 52.4504 43.1985 51.132 43.1985 49.5953C43.1985 48.0586 43.7401 46.7401 44.8234 45.6489C45.9067 44.5578 47.2157 44.0122 48.7413 44.0122C50.2669 44.0122 51.5759 44.5578 52.6592 45.6489C53.7425 46.7401 54.2841 48.0586 54.2841 49.5953C54.2841 51.0365 53.8102 52.2777 52.8623 53.3188C53.8102 54.36 54.2841 55.6011 54.2841 57.0424C54.2841 58.5836 53.7425 59.8976 52.6592 60.9887C51.5759 62.0799 50.2669 62.6254 48.7413 62.6254C48.0868 62.6254 47.473 62.5254 46.8907 62.3254V64.4849C46.8817 64.9987 47.0622 65.4351 47.4278 65.8034ZM50.0322 48.2813C49.6666 47.9131 49.2333 47.7312 48.7278 47.7312C48.2222 47.7312 47.7889 47.9131 47.4233 48.2813C47.0577 48.6496 46.8772 49.0861 46.8772 49.5953C46.8772 50.1045 47.0577 50.5409 47.4233 50.9092C47.7889 51.2775 48.2222 51.4593 48.7278 51.4593C49.2333 51.4593 49.6666 51.2775 50.0322 50.9092C50.3978 50.5409 50.5784 50.1045 50.5784 49.5953C50.5784 49.0861 50.3933 48.6496 50.0322 48.2813Z" fill="#3F5F4A"/>
<path d="M74.045 47.7314H59.2581V44.0078H74.045V47.7314ZM74.045 70.0772H59.2581V66.3537H74.045V70.0772ZM68.4976 61.2298C67.3511 62.2482 66.0106 62.712 64.4759 62.6165C62.9412 62.5256 61.6684 61.9072 60.6573 60.7661C59.6462 59.6113 59.1858 58.261 59.2716 56.7152C59.3574 55.1694 59.9757 53.8873 61.1222 52.8689C62.2687 51.8505 63.6048 51.3867 65.1349 51.4731C66.665 51.5595 67.9334 52.1824 68.9445 53.3372L68.9625 53.3553L74.9703 60.1705L72.1988 62.6483L69.6667 59.7795C69.3688 60.3114 68.9806 60.7979 68.4976 61.2298ZM64.7016 58.8929C65.2116 58.9248 65.6585 58.7702 66.0422 58.4383C66.4123 58.1019 66.6154 57.6745 66.6515 57.1516C66.6741 56.6424 66.5296 56.2014 66.2092 55.8286L66.1911 55.8104C65.8571 55.424 65.4328 55.2194 64.9137 55.1876C64.3947 55.1557 63.9523 55.3149 63.5822 55.6604C63.1985 55.9968 62.9954 56.4197 62.9638 56.938C62.9322 57.4517 63.0902 57.9018 63.4332 58.2883C63.7672 58.6611 64.1915 58.8657 64.7016 58.8929Z" fill="#3F5F4A"/>
<path fill-rule="evenodd" clip-rule="evenodd" d="M0 0H86V80H0V0ZM1.82845 1.84172V78.1583H84.1716V1.84172H1.82845Z" fill="#415F4A"/>
</svg>
