<svg width="18" height="18" viewBox="0 0 18 18" fill="none" xmlns="http://www.w3.org/2000/svg">
<path fill-rule="evenodd" clip-rule="evenodd" d="M3.56498 13.1877L3.10934 14.8907L4.81226 14.435L5.6016 14.8916C6.59955 15.4689 7.75777 15.8 9 15.8C12.7555 15.8 15.8 12.7555 15.8 9C15.8 5.24446 12.7555 2.2 9 2.2C5.24446 2.2 2.2 5.24446 2.2 9C2.2 10.2422 2.53109 11.4005 3.10837 12.3984L3.56498 13.1877ZM0 18L1.20404 13.5C0.438274 12.1762 0 10.6393 0 9C0 4.02944 4.02944 0 9 0C13.9706 0 18 4.02944 18 9C18 13.9706 13.9706 18 9 18C7.36071 18 5.82378 17.5617 4.5 16.796L0 18Z" fill="white"/>
<path d="M11.2486 9.8777C11.43 9.94176 12.3971 10.3902 12.5935 10.4827C12.79 10.5753 12.9222 10.6215 12.9713 10.6998C13.0204 10.7781 13.0204 11.1483 12.858 11.5825C12.6918 12.0167 11.906 12.4118 11.5282 12.4652C11.1882 12.5114 10.7613 12.5328 10.289 12.3904C10.0019 12.305 9.63546 12.1911 9.16701 11.9989C7.19117 11.1946 5.90291 9.32248 5.80469 9.19791C5.70646 9.07334 5 8.19424 5 7.27955C5 6.36486 5.50624 5.91641 5.68757 5.73134C5.86891 5.54627 6.08047 5.5 6.2127 5.5C6.34493 5.5 6.47715 5.5 6.59049 5.50712C6.71138 5.51068 6.87383 5.46085 7.0325 5.82388C7.19873 6.19403 7.59163 7.10871 7.64074 7.20125C7.68985 7.29379 7.72008 7.40056 7.65585 7.52513C7.59163 7.6497 7.55763 7.728 7.4594 7.83477C7.36118 7.94154 7.25162 8.07679 7.16473 8.15865C7.0665 8.25119 6.9645 8.35084 7.07784 8.53592C7.19495 8.72099 7.58785 9.3296 8.17342 9.82075C8.92522 10.4543 9.55991 10.65 9.75636 10.7426C9.95281 10.8351 10.0699 10.8209 10.1833 10.6963C10.2966 10.5753 10.6744 10.1553 10.8066 9.97023C10.9351 9.78516 11.0673 9.81719 11.2486 9.8777Z" fill="white"/>
</svg>
